PathFileType   4   (X/Y/Z)
DataRate	CameraRate	NumFrames	NumMarkers	Units	OrigDataRate	OrigDataStartFrame	OrigNumFrames
120.0	120.0	6	37	mm	120.0	124	164
Frame#	Time	midhip	hip_r	hip_l	knee_r	knee_l	ankle_r	ankle_l	midasis	asis_r	asis_l	psis_r	psis_l	epicondLat_r	epicondLat_l	epicondMed_r	epicondMed_l	malleolusLat_r	malleolusLat_l	malleolusMedv_r	malleolusMedv_l	neck	subclavicle_r	subclavicle_l	sternalnotch	xyphoidprocess	thighwand_r	thighwand_l	upperleg1_r	upperleg1_l	upperleg2_r	upperleg2_l	shankwand_r	shankwand_l	lowerleg1_r	lowerleg1_l	toe_r	toe_l
 	 	X1	Y1	Z1	X2	Y2	Z2	X3	Y3	Z3	X4	Y4	Z4	X5	Y5	Z5	X6	Y6	Z6	X7	Y7	Z7	X8	Y8	Z8	X9	Y9	Z9	X10	Y10	Z10	X11	Y11	Z11	X12	Y12	Z12	X13	Y13	Z13	X14	Y14	Z14	X15	Y15	Z15	X16	Y16	Z16	X17	Y17	Z17	X18	Y18	Z18	X19	Y19	Z19	X20	Y20	Z20	X21	Y21	Z21	X22	Y22	Z22	X23	Y23	Z23	X24	Y24	Z24	X25	Y25	Z25	X26	Y26	Z26	X27	Y27	Z27	X28	Y28	Z28	X29	Y29	Z29	X30	Y30	Z30	X31	Y31	Z31	X32	Y32	Z32	X33	Y33	Z33	X34	Y34	Z34	X35	Y35	Z35	X36	Y36	Z36	X37	Y37	Z37

	124	1.33333	1299.925	753.291	-188.558	1286.685	749.939	-126.496	1283.234	752.096	-256.748	1292.458	410.413	-152.084	1387.613	438.808	-274.364	1276.798	65.577	-167.544	1283.003	107.195	-273.020	1355.289	819.908	-192.345	1357.968	818.233	-91.248	1352.610	821.582	-293.442	1199.829	859.928	-155.238	1196.537	857.890	-209.879	1291.289	406.261	-97.254	1384.266	440.750	-328.726	1293.954	421.037	-200.359	1398.427	408.138	-235.621	1271.021	64.180	-130.518	1276.464	109.110	-309.387	1275.633	69.425	-192.542	1289.939	105.538	-243.824	1227.935	1227.837	-183.267	1337.766	1168.752	-150.012	1329.225	1172.159	-225.262	1318.705	1169.401	-187.412	1345.901	1086.938	-191.808	1390.574	527.288	-34.100	1490.429	600.090	-281.800	1317.387	584.472	-62.634	1403.967	633.085	-314.735	1316.744	501.157	-84.897	1423.092	547.768	-315.157	1266.547	170.105	-47.971	1328.820	218.893	-386.344	1262.509	140.460	-125.108	1304.664	187.292	-312.393	1372.491	36.641	-155.418	1368.796	57.088	-296.203
	125	1.34167	1304.370	753.161	-188.371	1290.751	749.728	-126.389	1287.967	751.933	-256.656	1294.338	410.307	-151.950	1393.823	438.931	-273.190	1276.991	65.524	-167.571	1300.736	103.047	-273.553	1359.648	819.765	-191.858	1361.810	818.054	-90.740	1357.487	821.476	-292.976	1204.013	859.705	-155.548	1200.944	857.617	-210.189	1292.819	406.163	-97.127	1390.757	440.767	-327.573	1298.598	420.684	-200.224	1404.051	408.371	-234.612	1271.034	64.147	-130.573	1294.298	104.870	-309.943	1275.717	69.357	-192.621	1307.393	101.537	-244.309	1232.177	1227.693	-183.115	1342.033	1168.545	-149.610	1333.416	1171.824	-225.007	1322.933	1169.144	-187.069	1350.049	1086.648	-191.333	1392.588	526.715	-33.337	1495.682	600.588	-280.326	1319.906	584.429	-62.524	1409.393	633.298	-313.858	1319.743	501.075	-84.636	1428.811	547.999	-314.082	1266.714	170.073	-47.999	1343.162	216.967	-386.193	1262.885	140.480	-125.162	1319.695	184.059	-312.718	1372.672	36.601	-155.477	1388.464	56.277	-296.203
	126	1.35000	1308.857	753.018	-188.216	1294.838	749.488	-126.290	1292.739	751.728	-256.569	1296.178	410.191	-151.836	1399.932	439.003	-272.028	1277.166	65.473	-167.611	1318.635	99.225	-274.153	1364.037	819.586	-191.375	1365.666	817.847	-90.234	1362.407	821.325	-292.516	1208.221	859.449	-155.894	1205.380	857.318	-210.526	1294.336	406.056	-97.023	1397.085	440.717	-326.426	1302.117	420.374	-199.957	1409.526	408.510	-233.545	1271.038	64.119	-130.640	1312.266	100.976	-310.558	1275.930	69.276	-192.710	1324.603	97.835	-244.783	1236.454	1227.697	-183.086	1346.287	1168.315	-149.132	1338.293	1171.740	-224.491	1327.497	1168.990	-186.694	1354.632	1086.497	-190.900	1394.637	526.164	-32.639	1500.880	600.944	-279.044	1322.563	584.364	-62.468	1414.719	633.358	-313.015	1322.378	501.026	-84.360	1434.337	548.114	-313.051	1266.879	170.043	-48.042	1357.436	215.278	-386.077	1263.283	140.470	-125.238	1334.849	181.041	-312.862	1372.835	36.562	-155.530	1408.147	55.743	-296.246
	127	1.35833	1313.397	752.881	-188.084	1298.952	749.228	-126.186	1297.541	751.488	-256.474	1297.984	410.068	-151.731	1405.954	439.024	-270.883	1277.328	65.428	-167.659	1336.661	95.779	-274.804	1368.456	819.374	-190.893	1369.552	817.619	-89.728	1367.360	821.129	-292.059	1212.453	859.169	-156.271	1209.851	857.003	-210.883	1295.845	405.947	-96.927	1403.269	440.602	-325.294	1303.525	420.425	-199.902	1414.953	408.451	-232.610	1271.034	64.098	-130.715	1330.325	97.474	-311.218	1276.022	69.227	-192.802	1342.162	94.510	-245.352	1240.844	1227.440	-183.103	1350.537	1168.002	-148.775	1343.116	1171.553	-224.021	1332.033	1168.733	-186.392	1359.241	1086.261	-190.548	1396.706	525.622	-32.008	1506.000	601.148	-277.934	1325.094	584.137	-62.316	1419.902	633.261	-312.204	1324.170	500.895	-84.204	1439.711	548.060	-312.122	1267.043	170.018	-48.093	1371.606	213.833	-385.998	1263.671	140.449	-125.349	1350.061	178.393	-312.865	1372.972	36.518	-155.563	1427.778	55.504	-296.346
	128	1.36667	1317.967	752.724	-187.948	1303.093	748.945	-126.098	1302.380	751.213	-256.392	1299.783	409.939	-151.632	1411.879	438.993	-269.786	1277.488	65.389	-167.717	1354.764	92.750	-275.487	1372.908	819.130	-190.427	1373.461	817.368	-89.231	1372.354	820.892	-291.623	1216.707	858.865	-156.671	1214.359	856.666	-211.262	1297.348	405.836	-96.839	1409.312	440.428	-324.206	1304.179	420.724	-200.083	1420.311	408.339	-231.544	1271.031	64.083	-130.800	1348.423	94.396	-311.902	1276.064	69.202	-192.909	1359.990	91.528	-246.006	1245.131	1226.940	-183.205	1354.723	1167.663	-148.409	1347.566	1171.256	-223.649	1336.353	1168.394	-186.076	1363.689	1085.963	-190.194	1398.760	525.057	-31.416	1511.035	601.202	-276.982	1327.367	583.753	-61.935	1424.937	633.045	-311.456	1325.612	500.579	-84.111	1444.924	547.879	-311.214	1267.208	169.999	-48.155	1385.642	212.632	-385.957	1264.002	140.425	-125.491	1365.145	176.089	-312.954	1373.073	36.467	-155.568	1447.293	55.582	-296.511
	129	1.37500	1322.601	752.574	-187.793	1307.251	748.640	-126.042	1307.254	750.907	-256.338	1301.597	409.803	-151.541	1417.692	438.912	-268.768	1277.651	65.355	-167.787	1372.896	90.167	-276.171	1377.387	818.857	-189.987	1377.384	817.096	-88.758	1377.389	820.618	-291.215	1220.986	858.540	-157.096	1218.913	856.307	-211.660	1298.859	405.726	-96.761	1415.212	440.203	-323.196	1304.754	420.849	-200.057	1425.409	408.288	-230.235	1271.029	64.075	-130.899	1366.518	91.759	-312.582	1276.091	69.199	-193.025	1378.009	88.914	-246.652	1249.460	1226.445	-183.351	1358.870	1167.343	-147.970	1351.821	1170.822	-223.464	1340.554	1168.011	-185.788	1367.926	1085.583	-189.725	1400.803	524.479	-30.844	1515.987	601.122	-276.172	1329.710	583.476	-61.585	1429.885	632.769	-310.799	1327.052	500.146	-83.973	1449.951	547.614	-310.295	1267.377	169.987	-48.229	1399.521	211.671	-385.944	1264.298	140.381	-125.637	1380.096	174.122	-313.114	1373.142	36.408	-155.550	1466.639	55.992	-296.721
